<svg id="OBJECTS" xmlns="http://www.w3.org/2000/svg" viewBox="0 0 500 500"><defs><style>.cls-1{fill:#f9b946;}.cls-2,.cls-4{fill:#77021d;}.cls-3{fill:#ffdf7b;}.cls-4{font-size:85px;font-family:Montserrat-Black, Montserrat;font-weight:800;}.cls-5{letter-spacing:0.01em;}.cls-6{letter-spacing:-0.015em;}.cls-7{letter-spacing:-0.005em;}</style></defs><circle class="cls-1" cx="83.74195" cy="250.00004" r="77.82453" transform="translate(-176.44392 292.61508) rotate(-80.78252)"/><path class="cls-2" d="M119.58741,227.83286a39.54454,39.54454,0,0,0-71.691,17.9684Z"/><path class="cls-2" d="M159.36364,231.62231,50.88851,259.67155l54.24424,25.175-5.082-19.69266,61.51588-15.1538A79.67965,79.67965,0,0,0,159.36364,231.62231Z"/><path class="cls-3" d="M92.7765,309.447A77.81837,77.81837,0,0,1,19.03023,206.76508a77.82419,77.82419,0,1,0,138.45729,68.09208A77.74282,77.74282,0,0,1,92.7765,309.447Z"/><text class="cls-4" transform="translate(167.26 274.64912)"><tspan class="cls-5">e</tspan><tspan class="cls-1" x="56.35449" y="0">-</tspan><tspan x="89.50488" y="0">s</tspan><tspan class="cls-6" x="137.52832" y="0">t</tspan><tspan x="175.35254" y="0">o</tspan><tspan class="cls-7" x="232.98242" y="0">r</tspan><tspan x="271.31738" y="0">e</tspan></text></svg>